<svg width="28" height="28" viewBox="0 0 28 28" fill="none" xmlns="http://www.w3.org/2000/svg">
<g clip-path="url(#clip0_2902_1125)">
<path d="M18.6667 14C18.6667 15.2834 19.7167 16.3334 21 16.3334C22.2833 16.3334 23.3333 15.2834 23.3333 14C23.3333 12.7167 22.2833 11.6667 21 11.6667C19.7167 11.6667 18.6667 12.7167 18.6667 14ZM16.3333 14C16.3333 12.7167 15.2833 11.6667 14 11.6667C12.7167 11.6667 11.6667 12.7167 11.6667 14C11.6667 15.2834 12.7167 16.3334 14 16.3334C15.2833 16.3334 16.3333 15.2834 16.3333 14ZM9.33334 14C9.33334 12.7167 8.28334 11.6667 7.00001 11.6667C5.71668 11.6667 4.66668 12.7167 4.66668 14C4.66668 15.2834 5.71668 16.3334 7.00001 16.3334C8.28334 16.3334 9.33334 15.2834 9.33334 14Z" fill="black"/>
</g>
<defs>
<clipPath id="clip0_2902_1125">
<rect width="28" height="28" fill="white" transform="translate(28) rotate(90)"/>
</clipPath>
</defs>
</svg>
