<svg width="16" height="16" viewBox="0 0 16 16" fill="none" xmlns="http://www.w3.org/2000/svg">
<path fill-rule="evenodd" clip-rule="evenodd" d="M0.666626 8C1.81996 5.07333 4.66663 3 7.99996 3C11.3333 3 14.18 5.07333 15.3333 8C14.18 10.9267 11.3333 13 7.99996 13C4.66663 13 1.81996 10.9267 0.666626 8ZM13.88 8C12.78 5.75333 10.5266 4.33333 7.99996 4.33333C5.47329 4.33333 3.21996 5.75333 2.11996 8C3.21996 10.2467 5.47329 11.6667 7.99996 11.6667C10.5266 11.6667 12.78 10.2467 13.88 8ZM7.99996 6.33333C8.91996 6.33333 9.66663 7.08 9.66663 8C9.66663 8.92 8.91996 9.66666 7.99996 9.66666C7.07997 9.66666 6.3333 8.92 6.3333 8C6.3333 7.08 7.07997 6.33333 7.99996 6.33333ZM4.99995 8C4.99995 6.34667 6.34662 5 7.99995 5C9.65329 5 11 6.34667 11 8C11 9.65333 9.65329 11 7.99995 11C6.34662 11 4.99995 9.65333 4.99995 8Z" fill="#8A8A8A"/>
</svg>
