<svg width="28" height="28" viewBox="0 0 28 28" fill="none" xmlns="http://www.w3.org/2000/svg">
<g clip-path="url(#clip0_2902_1396)">
<path d="M18.6667 14C18.6667 15.2833 19.7167 16.3333 21 16.3333C22.2833 16.3333 23.3333 15.2833 23.3333 14C23.3333 12.7166 22.2833 11.6666 21 11.6666C19.7167 11.6666 18.6667 12.7166 18.6667 14ZM16.3333 14C16.3333 12.7166 15.2833 11.6666 14 11.6666C12.7167 11.6666 11.6667 12.7166 11.6667 14C11.6667 15.2833 12.7167 16.3333 14 16.3333C15.2833 16.3333 16.3333 15.2833 16.3333 14ZM9.33334 14C9.33334 12.7166 8.28334 11.6666 7.00001 11.6666C5.71668 11.6666 4.66668 12.7166 4.66668 14C4.66668 15.2833 5.71668 16.3333 7.00001 16.3333C8.28334 16.3333 9.33334 15.2833 9.33334 14Z" fill="black"/>
</g>
<defs>
<clipPath id="clip0_2902_1396">
<rect width="28" height="28" fill="white" transform="translate(28) rotate(90)"/>
</clipPath>
</defs>
</svg>
